# xmcd CD database file
#
# Track frame offsets:
#	150
#	15462
#	33737
#	52175
#
# Disc length: 931 seconds
#
# Revision: 2
# Processed by: cddbd v1.4b41PL1 Copyright (c) Steve Scherf et al.
# Submitted via: Feurio! 1.50.2ß - http://www.feurio.com
#
DISCID=2f03a104
DTITLE=Maxamillion - Sexual Healing
DYEAR=1900
DGENRE=
TTITLE0=Sexual Healing, radio edit
TTITLE1=Sexual Healing, album mix
TTITLE2=Sexual Healing, instrumental
TTITLE3=Sexual Healing, acappella
EXTD=
EXTT0=
EXTT1=
EXTT2=
EXTT3=
PLAYORDER=
